<?xml version="1.0" encoding="UTF-8"?>
<!DOCTYPE svg PUBLIC "-//W3C//DTD SVG 1.1//EN" "http://www.w3.org/Graphics/SVG/1.1/DTD/svg11.dtd">
<!-- Creator: CorelDRAW X7 -->
<svg xmlns="http://www.w3.org/2000/svg" xml:space="preserve" width="1204px" height="1080px" version="1.1" style="shape-rendering:geometricPrecision; text-rendering:geometricPrecision; image-rendering:optimizeQuality; fill-rule:evenodd; clip-rule:evenodd"
viewBox="0 0 1204 1080"
 xmlns:xlink="http://www.w3.org/1999/xlink">
 <defs>
  <style type="text/css">
   <![CDATA[
    .fil6 {fill:#FEFEFE}
    .fil5 {fill:black}
    .fil1 {fill:#016316}
    .fil2 {fill:#8C9F33}
    .fil9 {fill:#D89F07}
    .fil3 {fill:#E4A108}
    .fil4 {fill:#EEBC03}
    .fil0 {fill:#F7D915}
    .fil10 {fill:#B78E00;fill-rule:nonzero}
    .fil8 {fill:url(#id0)}
    .fil7 {fill:url(#id1)}
   ]]>
  </style>
  <linearGradient id="id0" gradientUnits="userSpaceOnUse" x1="601.002" y1="539.123" x2="754.554" y2="571.761">
   <stop offset="0" style="stop-opacity:1; stop-color:#ECA400"/>
   <stop offset="0.419608" style="stop-opacity:1; stop-color:#ECA400"/>
   <stop offset="0.231373" style="stop-opacity:1; stop-color:#EDA804"/>
   <stop offset="0.34902" style="stop-opacity:1; stop-color:#F3C627"/>
   <stop offset="0.478431" style="stop-opacity:1; stop-color:#F5CD2E"/>
   <stop offset="0.74902" style="stop-opacity:1; stop-color:#F4C728"/>
   <stop offset="0.901961" style="stop-opacity:1; stop-color:#EDA704"/>
   <stop offset="1" style="stop-opacity:1; stop-color:#ECA400"/>
  </linearGradient>
  <linearGradient id="id1" gradientUnits="userSpaceOnUse" xlink:href="#id0" x1="450.008" y1="539.123" x2="603.56" y2="571.761">
  </linearGradient>
 </defs>
 <g id="Layer_x0020_1">
  <metadata id="CorelCorpID_0Corel-Layer"/>
  <g id="_1933516147536">
   <polygon class="fil0" points="602,0 903,206 1204,412 1089,746 974,1080 602,1080 230,1080 115,746 0,412 301,206 "/>
   <polygon class="fil1" points="602,49 876,236 1150,424 1045,728 940,1031 602,1031 264,1031 159,728 54,424 328,236 "/>
   <path class="fil2" d="M394 806c-7,1 -13,4 -18,9 -18,-33 -35,-49 -52,-51 -13,-1 -21,0 -34,8 -17,11 -35,2 -29,-19 -16,-12 -10,-37 15,-35 14,-18 36,-6 35,15 -1,10 6,18 18,24 5,2 5,0 2,-6 -15,-30 -28,-48 -39,-51 -12,-3 -21,-2 -27,3 -22,15 -40,-5 -29,-23 -12,-14 -5,-33 17,-28 4,-19 30,-13 33,7 2,16 -5,20 9,36 5,5 7,2 4,-6 -3,-8 -3,-20 -7,-36 -6,-21 -17,-34 -32,-37 -7,-2 -12,3 -16,5 -15,8 -34,-10 -19,-25 -12,-15 0,-33 22,-22 13,-13 34,-3 27,17 -4,12 -3,21 2,25 4,3 7,7 11,10 -1,-19 -1,-36 0,-50 0,-5 -3,-11 -9,-20 -11,-18 -16,-8 -34,-12 -16,-4 -21,-24 -7,-33 -11,-18 8,-35 27,-18 16,-9 32,5 26,24 -6,13 -14,11 -10,27 1,3 3,7 6,11 2,4 3,3 3,-1 3,-18 5,-32 8,-43 2,-6 1,-11 -2,-16 -4,-6 -6,-12 -8,-16 -5,-7 -13,-10 -22,-12 -13,-3 -16,-26 1,-30 -4,-18 19,-28 32,-11 17,-3 25,17 13,27 -10,9 -15,20 -11,36 2,7 5,7 6,0 2,-14 8,-27 15,-40 3,-5 2,-11 1,-15 -2,-9 -3,-16 -4,-21 -1,-7 -6,-12 -13,-15 -17,-6 -13,-28 4,-29 2,-23 33,-21 34,-2 17,0 19,16 9,23 -13,9 -21,17 -22,25 -1,12 -1,16 2,13 13,-15 24,-27 32,-36 4,-4 6,-11 6,-19 1,-14 -3,-22 -14,-29 -16,-10 -11,-35 11,-33 8,-19 32,-15 31,5 17,6 15,21 3,27 -17,9 -25,19 -25,29 0,6 0,6 3,2 13,-13 26,-24 37,-33 4,-2 5,-5 5,-10 1,-14 0,-22 -3,-23 -23,-11 -12,-39 15,-34 10,-22 38,-11 30,12 18,5 12,32 -5,33 -12,0 -16,-2 -21,4 -8,10 -11,13 -7,11 17,-7 34,-16 53,-24 8,-3 10,-12 10,-18 0,-18 28,-20 33,-5 23,-3 25,24 8,31 0,17 -20,23 -27,12 -7,-10 -8,-17 -25,-12 -17,6 -35,16 -54,29 32,3 39,-3 43,-11 7,-15 32,-12 29,6 21,4 15,24 0,27 2,16 -24,17 -30,4 -13,-30 -58,-26 -87,8 -5,5 -4,9 2,8 17,-2 27,-14 33,-26 4,-10 20,-10 25,3 23,-2 24,28 3,28 2,12 -17,19 -26,9 -12,-15 -46,-12 -63,8 -12,13 -19,24 -20,34 14,-3 22,-11 24,-24 3,-18 26,-27 32,-10 23,0 24,19 9,27 2,14 -20,23 -27,15 -13,-14 -37,-7 -53,14 -6,10 -9,23 -12,38 15,-6 22,-15 20,-29 -1,-5 0,-9 2,-12 7,-10 19,-11 24,-3 19,-10 33,13 18,24 7,14 -10,31 -25,21 -7,-5 -11,-7 -19,-4 -18,7 -27,17 -29,33 -2,9 -4,19 -5,32 13,-8 18,-16 15,-23 -3,-8 -5,-13 -3,-17 4,-10 10,-12 19,-6 17,-15 35,1 25,18 8,7 4,18 -7,22 -8,3 -15,1 -20,-1 -4,-2 -7,-2 -10,0 -14,9 -20,19 -19,28 0,7 -2,19 0,33 1,6 5,7 8,1 6,-9 6,-18 2,-25 -8,-17 4,-29 19,-24 19,-17 40,3 25,18 12,6 3,23 -10,22 -13,-2 -21,0 -28,8 -10,10 -15,17 -11,42 5,30 10,39 14,28 5,-14 6,-21 1,-24 -19,-14 -17,-31 2,-34 10,-21 35,-14 36,6 16,3 12,30 -5,31 -12,1 -17,3 -22,12 -7,14 -10,24 -2,40 17,33 24,45 26,35 1,-9 -1,-15 -7,-20 -21,-20 -17,-36 3,-35 8,-27 36,-20 33,3 19,4 17,22 -4,33 -12,6 -18,12 -19,22 0,7 3,13 10,20 10,10 18,19 27,26z"/>
   <path class="fil3" d="M818 819c3,-8 3,-13 0,-16 6,-6 12,-12 17,-18l0 -1c-24,-3 -28,-39 -10,-60 1,3 0,6 0,10 -1,7 3,13 7,18 9,10 11,19 6,27 0,1 1,1 1,2 4,-6 9,-12 13,-18 -18,0 -27,-35 -18,-57 2,2 2,5 3,9 0,7 4,13 8,17 8,8 11,17 10,26 0,0 0,1 0,1 4,-5 7,-11 11,-16 -1,-1 -1,-2 -2,-3 -19,1 -28,-35 -18,-58 2,3 2,6 2,10 1,7 4,12 9,17 8,8 11,17 9,26 0,1 1,2 2,4 3,-5 6,-11 9,-16 -1,-2 -2,-4 -2,-5 -19,1 -31,-34 -22,-57 2,2 2,5 3,10 1,7 5,12 9,16 9,7 12,16 11,25 0,2 2,4 3,6 4,-6 7,-13 9,-20 0,-1 -1,-2 -2,-3 -18,3 -33,-30 -26,-54 2,2 2,5 3,9 2,7 6,11 11,15 9,7 14,15 13,24 1,2 2,3 3,5 3,-8 6,-16 8,-24 0,-1 0,-1 -1,-1 -18,5 -36,-26 -33,-51 3,2 3,5 5,9 2,6 7,10 12,13 11,6 16,14 17,23 0,1 1,2 1,3 2,-8 4,-15 5,-23 0,-1 -1,-1 -2,-2 -17,7 -37,-24 -36,-50 2,1 3,4 5,8 3,7 8,11 13,14 11,5 16,12 18,22 1,1 2,2 3,4 1,-8 2,-16 3,-23 0,-1 0,-2 0,-2 -1,-1 -1,-1 -2,-2 -16,9 -39,-20 -41,-46 3,1 4,4 6,8 4,6 9,10 15,12 11,4 17,11 20,20 0,1 1,2 2,3 1,-8 1,-15 1,-23 -2,-1 -3,-2 -4,-3 -15,11 -42,-15 -47,-41 3,1 5,4 7,8 5,5 10,8 16,10 11,2 19,9 22,18 1,1 3,2 5,3 0,-7 -1,-14 -2,-22 0,0 0,0 0,0 -15,13 -46,-12 -54,-40 3,1 5,4 8,8 6,6 12,8 18,9 12,2 21,8 26,17 0,1 1,1 2,2 -1,-7 -3,-14 -4,-22 -1,0 -2,0 -2,-1 -15,14 -47,-10 -56,-36 3,0 5,3 8,7 6,5 12,7 19,8 12,1 21,6 26,15 1,1 2,2 4,3 -2,-8 -4,-16 -7,-23 -1,-1 -1,-1 -2,-2 -13,16 -48,-5 -59,-31 3,1 5,4 9,7 6,5 13,6 19,6 12,0 22,5 28,13 1,1 2,1 4,2 -3,-9 -7,-17 -10,-25l0 0c-11,17 -48,3 -64,-21 3,1 6,3 10,5 7,4 14,4 20,3 12,-2 22,1 30,8 0,0 1,1 2,1 -3,-6 -6,-12 -9,-18 -11,17 -48,2 -63,-21 3,0 6,2 10,5 7,3 13,4 20,3 12,-2 22,1 29,8 0,0 1,0 1,0 -3,-6 -7,-12 -11,-18 -11,14 -47,4 -63,-15 3,0 6,2 10,3 7,3 14,3 20,1 11,-2 21,-1 28,4 -3,-4 -6,-8 -9,-12 -1,0 -2,0 -2,0 -9,16 -48,6 -65,-13 3,-1 6,1 10,3 7,3 14,2 20,1 12,-3 22,-1 30,5 1,0 3,0 4,0 -4,-6 -9,-11 -14,-17 -3,0 -5,0 -7,0 -7,15 -44,11 -62,-4 3,-1 6,0 10,1 7,2 13,1 19,-1 11,-4 20,-3 28,1 2,1 5,0 8,0 -3,-4 -6,-7 -10,-10 -2,0 -5,1 -6,1 -12,8 -52,8 -59,-1 3,-1 5,-2 9,-1 7,0 10,-3 15,-6 10,-5 22,-1 30,2 1,0 5,2 8,1 -5,-4 -9,-8 -15,-13 -2,1 -4,2 -5,2 -11,9 -51,11 -59,1 3,-1 5,-1 9,-1 7,0 10,-4 15,-7 9,-5 21,-2 30,1 1,0 4,1 6,1 -7,-6 -15,-12 -22,-17 -1,0 -2,0 -3,1 -3,15 -38,18 -58,7 3,-1 6,-1 10,-1 6,1 12,-1 17,-4 9,-6 18,-7 27,-4 1,0 2,-1 3,-1 -5,-3 -10,-7 -15,-10 -2,1 -4,1 -6,1 -4,15 -41,16 -61,4 3,0 6,0 10,0 7,1 13,-1 18,-3 11,-5 20,-6 29,-3 1,0 3,-1 5,-1 -4,-2 -8,-5 -12,-7 0,0 0,0 0,0 -1,0 -2,-1 -4,-1 -2,0 -4,1 -5,1 -4,9 -36,9 -53,1 2,-1 5,0 8,0 6,1 12,0 16,-2 9,-3 18,-3 25,-1 1,0 3,0 5,-1 -3,-1 -6,-2 -7,-3 -10,3 -20,1 -29,-7 -5,-4 -11,-7 -19,-7 -4,0 -8,0 -10,-1 23,-12 61,-6 63,13 2,1 5,2 9,3 0,0 0,0 0,0 0,-1 1,-2 1,-3 0,0 -1,-1 -1,-2 -8,-2 -13,-9 -14,-20 0,-6 -2,-11 -7,-15 -3,-2 -5,-3 -6,-6 24,1 45,24 32,42 0,0 0,1 1,1 1,0 2,1 4,1 4,2 7,5 11,7 -1,-2 -1,-3 -1,-3 -7,-4 -9,-12 -7,-21 2,-6 2,-11 -2,-15 -2,-3 -3,-5 -3,-7 20,7 32,33 16,45 0,1 1,2 1,4 6,3 11,7 17,11 0,-1 0,-3 -1,-4 -6,-5 -7,-13 -4,-23 2,-6 2,-11 -1,-16 -2,-3 -3,-6 -3,-8 20,9 29,39 12,50 1,1 1,2 1,4 6,4 11,9 17,13 0,-1 0,-1 -1,-2 -5,-6 -6,-15 -2,-27 2,-6 2,-12 0,-18 -2,-3 -3,-6 -3,-9 20,12 27,46 9,57 0,1 0,2 0,2 5,4 10,9 15,13 0,-3 1,-5 0,-6 -5,-6 -6,-15 0,-25 2,-6 4,-12 2,-18 -1,-3 -3,-6 -2,-9 20,14 24,47 4,56 0,1 0,3 0,6 4,4 9,8 13,13 0,-1 0,-2 0,-2 -5,-7 -5,-16 2,-28 3,-6 5,-12 3,-19 -1,-3 -2,-6 -1,-9 21,15 23,50 0,59 0,1 0,2 0,3 6,6 11,12 16,18 0,0 0,-1 0,-2 -5,-7 -4,-16 3,-27 3,-6 6,-13 4,-19 -1,-4 -2,-7 -1,-10 20,16 21,52 -2,60 0,1 0,2 0,3 4,6 8,11 12,17 1,-2 1,-3 1,-4 -5,-8 -3,-17 5,-27 4,-5 7,-11 6,-17 -1,-4 -2,-7 -1,-10 19,17 17,51 -6,58 -1,1 -1,3 -2,5 2,2 3,5 5,7 2,4 4,7 6,11 1,-2 2,-3 2,-4 -3,-8 0,-16 9,-24 5,-4 9,-8 9,-14 0,-4 -1,-7 1,-9 14,18 7,49 -16,51 -1,1 -1,3 -2,4 3,7 7,14 10,21 2,-2 2,-4 3,-5 -3,-8 0,-15 9,-23 5,-4 9,-9 10,-15 0,-3 0,-6 1,-8 14,19 5,50 -18,50 -1,2 -2,4 -3,6 3,7 6,14 8,21 2,-2 3,-3 3,-4 -2,-8 2,-16 11,-22 5,-4 9,-8 10,-14 0,-4 0,-6 2,-8 11,20 0,49 -21,48 -1,2 -2,3 -3,5 2,7 4,14 5,21 2,-1 3,-3 4,-4 -2,-8 3,-15 13,-21 5,-3 9,-7 10,-13 1,-3 2,-6 4,-8 8,21 -5,50 -26,47 -1,1 -2,3 -3,4 1,7 2,13 3,19 1,0 2,-1 2,-2 0,-8 6,-14 16,-18 6,-2 11,-5 13,-11 2,-3 2,-6 5,-7 5,22 -13,48 -34,41 0,1 -1,1 -1,2 1,9 2,19 2,28 2,-1 3,-2 3,-3 0,-8 6,-14 17,-19 6,-2 12,-6 14,-12 1,-3 2,-6 4,-7 8,22 -11,48 -34,43 -1,1 -2,3 -4,4 0,9 0,17 -1,26 3,-1 4,-3 5,-4 0,-7 6,-13 18,-16 6,-2 11,-5 14,-10 1,-3 2,-6 5,-7 5,21 -14,44 -36,38 -2,1 -4,3 -6,4 -1,7 -2,14 -3,21 3,-1 4,-2 5,-3 2,-8 8,-12 20,-14 6,-1 11,-3 15,-8 2,-3 3,-5 5,-6 3,21 -20,42 -40,32 -1,1 -3,3 -6,4 -1,6 -2,13 -4,19 3,0 4,-1 5,-2 3,-8 10,-12 22,-12 6,0 12,-2 16,-6 2,-3 4,-6 6,-6 -2,24 -28,44 -45,29 -1,1 -3,2 -6,3 -2,8 -5,16 -8,24 2,0 3,-1 4,-1 3,-9 11,-13 24,-13 7,0 14,-2 18,-7 3,-3 5,-5 8,-6 -3,26 -32,46 -52,31 -1,1 -2,1 -4,2 -2,6 -5,11 -7,17 0,0 0,0 1,-1 4,-7 13,-11 26,-9 7,1 13,1 19,-3 3,-3 5,-5 8,-5 -6,25 -38,40 -55,23 -1,0 -1,0 -2,0 -2,6 -5,11 -8,17 0,-1 0,-1 1,-1 5,-7 14,-9 26,-5 7,1 13,2 19,-2 3,-2 5,-3 8,-3 -9,23 -42,34 -56,15 0,0 -1,0 -1,0 -4,6 -8,13 -12,19 2,0 3,0 4,-1 6,-7 15,-9 27,-6 7,2 13,3 19,-1 3,-2 6,-4 9,-3 -10,23 -43,34 -57,15 -2,0 -3,0 -5,1 -3,3 -5,6 -8,10 6,-2 14,-1 22,3 7,3 14,4 21,1 4,-2 7,-4 11,-3 -14,24 -50,32 -65,13 -7,9 -15,17 -24,26z"/>
   <polygon class="fil4" points="602,185 621,241 683,241 633,275 652,331 602,297 552,331 571,276 521,241 583,241 "/>
   <path class="fil5" d="M602 49l274 187 274 188 -105 304 -105 303 -338 0 -338 0 -105 -303 -105 -304 274 -188 274 -187zm-333 799c-24,5 -39,17 -46,36 30,-4 56,1 77,14 26,17 42,18 50,4 4,-8 -4,-20 -23,-37 -10,-8 -9,-18 2,-27l25 -21c-50,-23 -96,-28 -136,-15 23,12 40,28 51,46zm666 0c24,5 40,17 47,36 -30,-4 -56,1 -77,14 -26,17 -43,18 -50,4 -5,-8 3,-20 22,-37 10,-8 9,-18 -1,-27l-26 -21c51,-23 96,-28 136,-15 -22,12 -39,28 -51,46zm-110 37l26 24c4,5 11,7 19,7 1,0 2,0 3,0 9,-1 20,-5 34,-14 10,-7 21,-11 34,-13 12,-2 26,-3 40,-1l4 0 -48 139 -335 0 -335 0 -48 -139 4 0c15,-2 28,-1 41,1 12,2 23,6 33,13 14,9 25,13 34,14 1,0 2,0 3,0 9,0 15,-2 19,-7l26 -24c20,14 44,27 69,37 46,19 98,29 154,29 56,0 109,-10 154,-29 26,-10 49,-23 69,-37zm162 -1l-1 -2c-4,-10 -10,-18 -18,-25 -7,-5 -16,-9 -26,-12 5,-7 11,-13 17,-19 9,-8 18,-14 29,-21l9 -4 -10 -4c-20,-6 -42,-8 -65,-6 -23,3 -48,10 -74,22l-2 1 -44 -37c-2,-2 -11,-11 -24,0 -24,20 -51,36 -81,47 -30,11 -62,16 -95,16 -33,0 -65,-5 -94,-16 -31,-11 -58,-27 -82,-47 -12,-11 -22,-2 -24,0l-44 37 -2 -1c-26,-12 -50,-19 -73,-22 -24,-2 -46,0 -66,6l-10 4 9 4c11,7 21,13 29,21 6,6 12,12 17,19 -10,3 -18,7 -25,12 -9,7 -15,15 -19,25l0 2 -55 -158 -103 -300 271 -186 271 -186 271 186 271 186 -103 300 -54 158zm-118 -45c-55,65 -154,108 -267,108 -113,0 -211,-43 -267,-108l70 -59c0,0 8,-9 19,0 46,40 109,65 178,65 69,0 132,-25 179,-65 11,-9 18,0 18,0l70 59z"/>
   <path class="fil6" d="M875 838l-25 -21c51,-23 96,-28 136,-15 -23,12 -40,28 -51,46 24,5 39,17 47,36 -30,-4 -56,1 -78,14 -26,17 -42,18 -50,4 -4,-8 4,-20 23,-37 10,-8 9,-18 -2,-27zm-124 -217l-123 64 0 -2 122 -64 -1 -3 -146 77 -1 1 -1 -1 -146 -77 -1 2 122 65 0 2 -123 -65 -6 12 130 72 2 1 -2 1 -78 44 14 14 88 -48 1 0 1 0 88 48 14 -14 -78 -44 -2 -1 2 -1 130 -72 -6 -11zm-126 66l-15 8 -1 -2 16 -9 0 3zm-46 -3l16 9 -1 1 -15 -7 0 -3zm-319 47c-5,10 3,15 9,17 2,0 4,2 1,4 -4,4 -2,15 6,16 11,1 14,-8 11,-11 -3,-3 -1,-5 1,-3 4,3 12,3 14,-4 2,-7 -1,-9 -10,-11 -5,0 -6,-6 -2,-5 8,2 11,1 12,-8 1,-9 -9,-11 -15,-8 -3,1 -5,2 -5,5 -1,3 -3,4 -6,2 -8,-3 -14,1 -16,6zm279 -432c-3,-8 -11,-8 -15,-6 -3,1 -5,1 -4,-2 1,-4 -6,-10 -12,-6 -9,5 -6,12 -2,12 4,0 4,3 2,3 -5,-1 -10,3 -8,8 3,6 6,6 13,2 3,-2 7,1 4,3 -6,3 -8,5 -4,11 5,6 13,2 15,-2 2,-3 2,-5 1,-7 -1,-2 -1,-3 2,-4 7,-2 9,-8 8,-12zm-32 56c0,-8 -7,-11 -13,-10 -2,0 -4,-1 -2,-3 2,-4 -3,-12 -10,-11 -9,2 -9,10 -5,12 3,1 3,3 0,2 -4,-1 -10,1 -10,6 1,6 4,8 12,6 3,0 6,4 3,4 -7,1 -10,3 -7,9 2,8 10,7 14,3 2,-2 4,-3 3,-6 -1,-2 1,-3 4,-3 7,1 11,-4 11,-9zm-57 -82c-9,-4 -16,2 -17,7 0,3 -2,4 -5,1 -4,-4 -15,-3 -16,5 -1,10 8,13 12,11 3,-3 5,-2 3,1 -3,3 -3,10 4,12 7,3 10,0 11,-8 1,-4 7,-5 6,-1 -2,7 -1,10 8,11 10,2 12,-7 9,-13 -1,-3 -3,-5 -5,-5 -4,-1 -5,-3 -3,-6 4,-7 -1,-12 -7,-15zm-66 31c-9,-2 -14,5 -14,10 0,3 -1,5 -4,2 -4,-4 -14,0 -14,7 1,11 10,12 12,9 3,-3 5,-2 3,0 -2,4 -1,11 5,12 7,1 10,-1 9,-10 0,-4 5,-6 5,-2 0,7 1,10 9,10 9,-1 10,-10 6,-15 -1,-2 -3,-4 -6,-4 -3,0 -4,-2 -3,-5 2,-7 -3,-12 -8,-14zm72 74c-2,-8 -10,-9 -15,-7 -2,1 -4,1 -3,-2 2,-4 -5,-10 -11,-7 -9,4 -7,10 -3,11 4,1 4,3 1,2 -5,0 -10,3 -8,8 1,5 5,6 12,3 3,-1 7,2 3,3 -6,2 -8,4 -4,10 3,6 11,3 14,-1 2,-2 3,-4 2,-6 -1,-2 0,-3 3,-4 7,-1 9,-6 9,-10zm-132 -22c-10,0 -11,9 -10,14 1,2 0,5 -3,3 -5,-2 -13,4 -10,12 4,9 12,8 14,4 1,-4 3,-4 3,-1 -1,4 2,11 8,9 7,-1 8,-4 5,-12 -1,-4 3,-7 4,-4 2,7 4,10 12,7 8,-4 5,-12 1,-16 -3,-2 -5,-3 -7,-2 -3,1 -5,0 -5,-4 0,-8 -7,-10 -12,-10zm80 66c-2,-8 -10,-8 -15,-5 -2,1 -4,1 -3,-2 1,-5 -7,-11 -13,-7 -8,6 -5,14 -1,14 4,0 4,2 2,2 -5,0 -10,5 -7,10 2,6 6,6 12,1 3,-2 7,1 4,3 -5,4 -7,6 -3,12 5,6 13,2 15,-3 1,-3 2,-5 0,-7 -1,-2 0,-4 3,-5 7,-2 8,-8 6,-13zm-127 0c-10,3 -10,12 -7,18 2,2 2,4 -2,4 -6,-2 -13,7 -8,14 6,9 15,6 15,1 1,-4 3,-4 3,-1 0,5 5,11 12,8 6,-3 7,-7 1,-15 -2,-3 1,-8 3,-4 4,6 7,9 14,3 8,-5 3,-14 -3,-17 -3,-1 -5,-2 -8,0 -2,2 -4,1 -5,-3 -3,-8 -10,-10 -15,-8zm96 45c-5,-7 -13,-4 -16,0 -2,2 -4,2 -4,-1 -1,-5 -10,-8 -15,-2 -5,8 0,14 4,13 4,-1 4,1 2,2 -4,1 -8,7 -4,11 5,5 8,4 13,-2 2,-3 7,-2 4,1 -4,5 -5,8 1,12 7,5 13,-2 13,-7 1,-3 0,-5 -1,-7 -3,-1 -2,-3 0,-5 6,-4 6,-11 3,-15zm-130 28c-9,7 -5,16 0,20 2,2 3,4 -1,5 -6,1 -9,12 -1,17 9,7 16,0 15,-5 -1,-4 1,-5 2,-3 2,5 9,9 14,4 5,-6 4,-10 -4,-15 -3,-2 -2,-8 1,-6 7,5 10,6 15,-1 5,-9 -3,-15 -10,-16 -3,0 -6,0 -7,3 -2,2 -4,2 -7,-1 -5,-7 -13,-5 -17,-2zm101 25c-7,-5 -13,0 -15,5 -1,3 -3,4 -4,1 -3,-5 -12,-5 -14,2 -3,10 4,14 7,11 3,-2 5,0 3,2 -4,2 -5,9 0,12 6,3 8,1 11,-7 1,-3 6,-4 5,0 -3,6 -3,9 4,11 8,2 11,-6 10,-11 0,-3 -1,-5 -4,-6 -2,0 -3,-2 -1,-5 5,-6 2,-12 -2,-15zm0 53c-8,-5 -14,0 -17,5 -1,2 -2,3 -4,0 -2,-4 -12,-4 -15,3 -3,9 5,13 8,11 4,-2 5,-1 3,1 -4,3 -5,9 0,12 6,3 9,1 12,-6 1,-4 6,-4 5,-1 -3,7 -3,10 5,12 8,2 11,-6 10,-11 -1,-3 -1,-5 -4,-6 -2,-1 -3,-3 -1,-5 5,-6 2,-12 -2,-15zm-116 3c-7,7 -2,15 3,18 2,1 3,3 0,5 -6,1 -7,12 0,16 10,5 15,-2 13,-7 -2,-4 0,-5 2,-2 2,4 9,7 13,1 4,-5 3,-9 -5,-13 -4,-2 -3,-7 0,-5 7,4 10,4 13,-4 4,-8 -4,-13 -10,-13 -3,0 -6,1 -7,3 -1,3 -3,3 -6,1 -6,-6 -12,-4 -16,0zm109 48c-10,-1 -13,7 -13,13 0,3 -1,5 -4,3 -4,-4 -14,1 -13,9 2,11 11,12 13,8 3,-4 5,-3 4,0 -2,4 -1,11 6,12 7,0 9,-3 8,-13 -1,-4 4,-6 4,-2 1,7 3,11 11,9 9,-2 8,-12 4,-17 -2,-2 -4,-4 -6,-3 -3,0 -5,-1 -4,-5 1,-8 -4,-13 -10,-14zm-101 36c-6,9 0,16 6,18 3,1 5,3 1,5 -5,3 -5,15 3,17 12,4 17,-5 14,-9 -3,-4 -1,-6 1,-3 4,4 12,5 15,-1 3,-7 1,-10 -8,-13 -5,-1 -5,-7 -1,-6 8,3 12,3 14,-6 2,-9 -8,-13 -14,-12 -4,1 -6,2 -7,5 -1,3 -3,4 -6,2 -8,-5 -15,-2 -18,3zm129 32c-9,-1 -13,6 -12,12 0,2 -1,4 -4,2 -4,-3 -12,1 -11,8 1,10 9,11 11,7 2,-3 5,-2 3,0 -1,4 0,11 6,11 7,0 8,-3 7,-11 0,-4 4,-6 4,-3 1,7 2,10 10,9 8,-2 7,-11 4,-15 -2,-2 -4,-4 -6,-3 -3,0 -4,-1 -4,-5 2,-7 -4,-11 -8,-12zm-36 146l25 -21c-51,-23 -96,-28 -136,-15 23,12 40,28 51,46 -24,5 -39,17 -47,36 30,-4 56,1 78,14 26,17 42,18 50,4 4,-8 -4,-20 -23,-37 -10,-8 -9,-18 2,-27zm540 1c-55,65 -154,108 -267,108 -113,0 -212,-43 -267,-108l70 -59c0,0 7,-9 18,0 47,40 110,65 179,65 69,0 132,-25 179,-65 11,-9 18,0 18,0l70 59z"/>
   <path class="fil7" d="M451 586c60,0 108,26 151,64l0 -151c-32,-22 -68,-36 -107,-38l-44 125z"/>
   <path class="fil8" d="M753 586c-59,0 -107,26 -151,64l0 -151c33,-22 68,-36 107,-38l44 125z"/>
   <path class="fil9" d="M451 586l3 28c58,5 102,26 130,62l37 0c28,-36 71,-57 130,-62l2 -28c-59,0 -107,26 -151,64 -43,-38 -91,-64 -151,-64z"/>
   <path class="fil5" d="M530 500c-2,-1 -3,0 -5,2 1,-1 1,-1 2,-1 1,0 2,0 2,1 1,1 3,1 5,1 2,-1 2,0 2,1 1,2 4,3 7,2 1,-1 3,0 3,1 1,2 3,3 6,3 1,0 2,1 2,2 2,2 4,2 8,2 2,-1 4,0 5,3 2,2 5,2 8,1 -4,-1 -6,-2 -7,-4 -2,-2 -4,-3 -7,-2 -3,1 -5,-1 -6,-3 -1,-2 -3,-2 -6,-2 -1,0 -2,-1 -2,-2 -1,-2 -3,-2 -7,-2 -1,1 -2,0 -3,-1 -1,-2 -3,-2 -5,0 -1,0 -1,-1 -2,-2zm-12 37c-1,-1 -3,0 -5,2 1,-1 2,-1 2,-1 1,0 2,0 3,1 1,2 2,1 4,1 2,-1 3,0 3,2 1,2 4,2 7,1 2,0 3,0 4,2 0,2 2,3 6,2 1,0 1,1 2,2 2,2 4,3 8,2 3,-1 4,1 6,3 1,3 4,3 8,1 -4,0 -7,-1 -8,-3 -2,-3 -3,-4 -7,-3 -3,1 -5,0 -6,-3 -1,-2 -4,-2 -7,-2 -1,0 -1,-1 -2,-2 -1,-2 -3,-2 -7,-2 -2,1 -2,0 -3,-1 -1,-2 -3,-2 -5,0 -1,0 -2,-1 -3,-2zm-7 18c-2,-1 -4,0 -6,2 1,-1 2,-1 2,-1 2,0 2,0 3,1 1,1 3,1 5,1 3,-1 3,0 4,1 1,2 4,2 7,1 2,0 4,1 4,2 2,2 4,3 8,3 1,0 1,0 2,1 2,3 5,3 9,2 3,-1 5,1 7,3 2,2 5,2 9,1 -4,0 -8,-1 -9,-3 -2,-3 -4,-4 -8,-3 -3,1 -5,0 -7,-3 -1,-2 -4,-2 -8,-2 -1,0 -2,-1 -2,-2 -1,-2 -4,-2 -8,-1 -2,0 -3,0 -3,-2 -2,-1 -4,-1 -7,0 -1,1 -1,0 -2,-1zm14 -37c-1,-1 -3,0 -5,2 1,-1 2,-1 2,-1 1,0 2,0 2,1 1,1 3,1 5,1 2,-1 2,0 3,1 0,2 3,2 6,2 1,-1 3,0 3,1 1,2 3,3 6,3 1,0 2,1 2,1 2,3 4,3 8,2 2,0 4,1 6,3 1,3 4,3 7,2 -3,-1 -6,-2 -7,-4 -2,-2 -3,-3 -7,-2 -3,1 -5,-1 -6,-3 -1,-2 -3,-3 -6,-2 -1,0 -2,-1 -2,-2 -1,-2 -3,-3 -7,-2 -1,1 -2,0 -3,-1 -1,-2 -3,-2 -5,-1 -1,1 -1,0 -2,-1z"/>
   <path class="fil5" d="M675 500c1,-1 3,0 4,2 0,-1 -1,-1 -2,-1 -1,0 -1,0 -2,1 -1,1 -2,1 -4,1 -2,-1 -3,0 -3,1 -1,2 -3,3 -6,2 -2,-1 -3,0 -4,1 -1,2 -3,3 -6,3 -1,0 -1,1 -2,2 -1,2 -4,2 -7,2 -3,-1 -5,0 -6,3 -1,2 -4,2 -8,1 4,-1 7,-2 8,-4 1,-2 3,-3 7,-2 2,1 4,-1 6,-3 0,-2 3,-2 6,-2 1,0 1,-1 2,-2 1,-2 3,-2 6,-2 2,1 3,0 3,-1 1,-2 3,-2 5,0 1,0 2,-1 3,-2zm11 37c2,-1 4,0 5,2 -1,-1 -1,-1 -2,-1 -1,0 -1,0 -2,1 -1,2 -3,1 -5,1 -2,-1 -2,0 -3,2 0,2 -3,2 -6,1 -2,0 -3,0 -4,2 -1,2 -3,3 -6,2 -1,0 -2,1 -2,2 -2,2 -5,3 -8,2 -3,-1 -5,1 -6,3 -2,3 -5,3 -8,1 4,0 7,-1 8,-3 1,-3 3,-4 7,-3 2,1 4,0 6,-3 1,-2 3,-2 6,-2 2,0 2,-1 3,-2 0,-2 3,-2 7,-2 1,1 2,0 2,-1 2,-2 4,-2 6,0 1,0 1,-1 2,-2zm8 18c2,-1 4,0 5,2 0,-1 -1,-1 -2,-1 -1,0 -2,0 -2,1 -2,1 -3,1 -6,1 -2,-1 -3,0 -3,1 -1,2 -4,2 -7,1 -3,0 -4,1 -5,2 -1,2 -3,3 -7,3 -1,0 -2,0 -3,1 -2,3 -5,3 -9,2 -3,-1 -5,1 -7,3 -1,2 -5,2 -9,1 5,0 8,-1 9,-3 2,-3 4,-4 8,-3 4,1 6,0 8,-3 1,-2 3,-2 7,-2 2,0 2,-1 3,-2 1,-2 4,-2 8,-1 1,0 2,0 3,-2 1,-1 4,-1 6,0 1,1 2,0 3,-1zm-15 -37c2,-1 4,0 5,2 0,-1 -1,-1 -2,-1 -1,0 -1,0 -2,1 -1,1 -2,1 -4,1 -2,-1 -3,0 -3,1 -1,2 -3,2 -6,2 -2,-1 -3,0 -4,1 -1,2 -3,3 -6,3 -1,0 -1,1 -2,1 -1,3 -4,3 -7,2 -3,0 -5,1 -6,3 -1,3 -4,3 -8,2 4,-1 7,-2 8,-4 1,-2 3,-3 6,-2 3,1 5,-1 6,-3 1,-2 4,-3 7,-2 1,0 1,-1 2,-2 1,-2 3,-3 6,-2 2,1 3,0 3,-1 1,-2 3,-2 5,-1 1,1 2,0 2,-1z"/>
   <path class="fil10" d="M498 571c16,2 30,5 44,10 13,5 25,12 37,20l5 -89c-9,-6 -19,-12 -28,-16 -10,-5 -21,-8 -32,-9l0 0 -1 0 0 0c-2,0 -6,-1 -7,2l-22 69 0 0c0,2 -1,4 -1,5 0,2 0,4 1,6 0,1 1,2 3,2 0,0 0,0 1,0zm43 12c-13,-5 -27,-9 -43,-10 -1,0 -1,0 -2,0 -2,-1 -3,-2 -4,-4 -1,-1 -1,-3 -1,-6 1,-2 1,-4 2,-6l0 0 21 -68c2,-5 6,-4 10,-4l0 0c12,1 22,5 32,9 10,5 20,11 29,17l1 0 0 1 -5 90 0 2 -2 -1c-12,-8 -24,-15 -38,-20z"/>
   <path class="fil10" d="M707 571c-16,2 -31,5 -44,10 -14,5 -26,12 -37,20l-5 -89c9,-6 18,-12 28,-16 10,-5 20,-8 31,-9l0 0 1 0 0 0c3,0 7,-1 8,2l21 69 0 0c1,2 1,4 1,5 1,2 0,4 0,6 -1,1 -2,2 -3,2 0,0 -1,0 -1,0zm-44 12c14,-5 28,-9 44,-10 0,0 1,0 1,0 2,-1 4,-2 4,-4 1,-1 1,-3 1,-6 0,-2 0,-4 -1,-6l0 0 -22 -68c-1,-5 -6,-4 -9,-4l-1 0c-11,1 -22,5 -32,9 -10,5 -19,11 -29,17l0 0 0 1 5 90 0 2 1 -1c12,-8 25,-15 38,-20z"/>
   <path class="fil5" d="M376 850l-12 -9 33 -43 11 9 -32 43zm78 -262l2 24c29,2 54,9 75,19 22,10 40,25 54,43l35 0c14,-18 32,-33 53,-43 22,-10 47,-17 76,-19l2 -24c-29,0 -55,7 -79,18 -24,11 -47,27 -68,45l-2 2 -1 -2c-22,-18 -44,-34 -69,-45 -24,-11 -50,-18 -78,-18zm61 84l-70 -39 -1 -1 0 -1 9 -17 1 0 -3 -28 44 -125c39,2 75,16 107,38 33,-22 68,-36 107,-38l44 125 -2 28 -1 0 1 0 9 17 0 1 -1 1 -70 39 19 77 -1 1 -15 16 0 1 -1 0 -89 -48 -89 48 -1 0 0 -1 -15 -16 -1 -1 19 -77zm85 -171l-1 -1c-15,-10 -31,-19 -48,-25 -18,-6 -35,-10 -54,-12l-43 121 0 2c58,0 105,26 147,63l0 -148 -1 0zm151 85l-1 -2 -42 -121c-19,2 -37,6 -54,12 -17,6 -33,15 -49,25l-1 1 -1 0 0 148c43,-37 90,-63 148,-63zm0 35l-123 64 0 -2 122 -64 -1 -3 -146 77 -1 1 -1 -1 -146 -77 -1 2 122 65 0 2 -123 -65 -6 12 130 72 2 1 -2 1 -78 44 14 14 88 -48 1 0 1 0 88 48 14 -14 -78 -44 -2 -1 2 -1 130 -72 -6 -11zm-126 66l-15 8 -1 -2 16 -9 0 3zm-46 -3l16 9 -1 1 -15 -7 0 -3zm-169 188l-13 -8 5 -20 -10 17 -13 -8 29 -45 12 8 -9 15 15 -12 11 7 -20 16 -7 30zm36 19l-13 -7 11 -23 -3 -2 -12 23 -13 -6 24 -48 13 6 -9 20 3 1 10 -19 13 7 -24 48zm34 13l-26 -10 19 -50 14 5 -17 44 12 4 -2 7zm41 11l-14 -4 1 -14 -6 -2 -6 14 -14 -4 23 -49 18 4 -2 55zm-12 -26l2 -16 -6 15 4 1zm19 6l13 1 -1 13c-1,1 0,2 2,2 2,0 3,0 3,-2l1 -6c0,-2 -1,-4 -4,-7 -6,-6 -9,-10 -10,-12 -2,-1 -2,-3 -2,-5l1 -6c1,-7 7,-10 18,-8 10,1 15,5 14,11l-1 9 -13 -1 1 -10c0,-1 -1,-2 -2,-2 -2,0 -3,1 -3,3l0 3c-1,2 1,5 4,8 5,5 8,9 10,11 1,2 2,4 1,7l-1 6c0,7 -7,10 -18,8 -11,-1 -16,-5 -15,-11l2 -12zm50 27l2 -54 17 1c4,0 8,1 11,3 3,1 4,4 4,7l0 7c0,4 -3,7 -9,8 6,1 9,4 9,8l-1 10c0,4 -1,6 -4,8 -3,2 -7,2 -11,2l-18 0zm20 -34l0 -9c0,-2 -1,-3 -4,-3l0 14c2,0 4,0 4,-2zm-1 25l0 -14c1,-2 -1,-3 -4,-3l0 19c3,0 4,-1 4,-2zm47 6l-28 3 -5 -54 29 -2 0 7 -14 1 2 14 12 -1 0 7 -12 1 2 19 13 -2 1 7zm43 -8l-14 3c-2,-1 -4,-5 -5,-12l0 0 -1 -4c-1,-4 -1,-6 -1,-6 0,-2 -2,-3 -5,-2l5 25 -14 3 -11 -52 18 -4c4,-1 7,-1 11,0 3,1 5,3 6,6l1 7c1,4 -2,7 -7,10 6,-1 9,2 10,6l1 6c2,9 4,13 6,14zm-24 -31l-1 -9c-1,-1 -2,-2 -5,-1l3 14c3,-1 4,-2 3,-4zm65 18l-14 4 -6 -13 -7 2 2 15 -14 4 -5 -54 18 -6 26 48zm-24 -15l-6 -15 2 16 4 -1zm74 -9l-12 6 -13 -27 6 30 -9 5 -21 -23 13 27 -10 5 -24 -48 17 -9 18 22 -6 -27 17 -9 24 48zm37 -23l-12 7 -10 -11 -6 4 6 13 -13 8 -18 -51 16 -10 37 40zm-27 -9l-10 -13 7 15 3 -2zm51 -11l-21 16 -33 -42 11 -9 29 37 10 -8 4 6z"/>
  </g>
 </g>
</svg>
